<?xml version="1.0" standalone="no"?>
<!DOCTYPE svg PUBLIC "-//W3C//DTD SVG 20010904//EN"
 "http://www.w3.org/TR/2001/REC-SVG-20010904/DTD/svg10.dtd">
<svg version="1.0" xmlns="http://www.w3.org/2000/svg"
 width="512.000000pt" height="512.000000pt" viewBox="0 0 512.000000 512.000000"
 preserveAspectRatio="xMidYMid meet">

<g transform="translate(0.000000,512.000000) scale(0.100000,-0.100000)"
fill="#000000" stroke="none">
<path d="M2270 4915 c-207 -26 -443 -88 -610 -160 -105 -45 -122 -51 -90 -31
23 14 -17 16 -450 13 l-475 -2 -60 -28 c-78 -36 -137 -95 -172 -171 l-28 -61
-3 -465 -2 -465 56 105 c191 357 475 673 799 887 82 55 148 94 135 80 -3 -2
-59 -41 -125 -85 -583 -389 -957 -998 -1040 -1692 -17 -145 -20 -389 -5 -528
51 -465 239 -914 529 -1262 25 -30 37 -48 27 -40 -60 47 -228 294 -318 465
l-58 110 2 -465 3 -465 28 -60 c36 -78 95 -137 171 -172 l61 -28 470 -3 469
-3 111 -44 c282 -113 560 -165 875 -165 316 0 618 58 890 170 l73 30 441 0
c359 0 453 3 499 15 103 27 177 89 224 190 l28 60 5 470 5 470 31 75 c79 187
143 443 165 659 17 163 7 463 -21 621 -27 152 -75 324 -132 468 l-43 107 -5
480 c-5 467 -6 481 -27 528 -33 70 -113 149 -186 183 l-62 29 -460 3 -460 2
110 -58 c215 -112 392 -241 564 -407 102 -99 212 -224 265 -300 l28 -40 -29
35 c-222 271 -371 412 -588 557 -297 199 -596 317 -965 379 -131 22 -510 28
-650 9z m-790 -240 c0 -2 -22 -16 -50 -30 -27 -14 -50 -23 -50 -20 0 2 21 16
48 29 53 28 52 28 52 21z m1315 -110 c359 -42 696 -177 986 -395 180 -135 391
-371 514 -575 216 -357 316 -807 274 -1231 -93 -949 -830 -1698 -1777 -1809
-589 -69 -1182 127 -1614 533 -355 334 -575 781 -628 1274 -47 442 72 927 317
1298 97 146 174 240 293 354 441 423 1031 621 1635 551z m-2024 -84 c45 -45
37 -100 -18 -129 -31 -17 -57 -15 -86 8 -48 38 -41 110 13 137 38 19 59 16 91
-16z m3731 1 c10 -9 20 -31 24 -49 5 -27 1 -37 -24 -63 -39 -39 -74 -39 -113
-1 -38 39 -38 74 1 113 26 25 36 29 63 24 18 -4 40 -14 49 -24z m28 -583 c15
-28 5 -23 -15 7 -9 15 -12 23 -6 20 6 -4 16 -16 21 -27z m-3645 -3019 c60 -60
107 -110 105 -110 -3 0 -55 50 -115 110 -60 61 -107 110 -105 110 3 0 55 -49
115 -110z m-132 -122 c56 -29 63 -84 17 -130 -26 -25 -36 -29 -63 -24 -73 15
-97 96 -43 142 30 26 56 30 89 12z m3749 -18 c25 -26 29 -36 24 -63 -8 -41
-32 -65 -73 -73 -27 -5 -37 -1 -63 24 -39 39 -39 74 -1 113 39 38 74 38 113
-1z m-3467 0 c10 -11 16 -20 13 -20 -3 0 -13 9 -23 20 -10 11 -16 20 -13 20 3
0 13 -9 23 -20z" id="base"/>
<path class="fan-pc-blades" d="M2255 4230 c-44 -4 -100 -11 -124 -15 l-44 -7 49 -41 c270 -225 424
-557 424 -913 l0 -94 -42 -1 c-24 0 -74 -9 -113 -19 l-70 -19 -30 37 c-149
185 -313 308 -523 392 -130 52 -227 67 -329 52 -178 -28 -312 -133 -435 -339
-47 -80 -123 -251 -115 -260 3 -2 36 5 73 17 163 50 413 65 589 34 149 -25
309 -86 431 -162 l41 -25 -28 -67 c-16 -36 -31 -85 -35 -108 -6 -38 -9 -42
-43 -47 -82 -12 -241 -55 -318 -84 -168 -65 -368 -211 -442 -322 -71 -106 -85
-156 -85 -299 0 -117 2 -131 32 -209 46 -122 166 -316 231 -375 19 -18 20 -17
26 21 11 68 55 216 83 278 102 231 270 423 492 560 41 25 77 45 81 45 3 0 19
-19 34 -42 16 -23 50 -64 76 -89 l48 -47 -24 -60 c-84 -208 -105 -474 -54
-691 28 -121 72 -204 149 -281 105 -106 191 -141 389 -159 102 -10 289 -1 354
17 l28 7 -60 50 c-253 209 -411 551 -411 891 l0 104 43 1 c23 0 74 9 112 19
l70 19 30 -37 c149 -185 313 -308 523 -392 187 -75 329 -76 480 -4 134 64 271
233 359 440 25 58 43 108 40 110 -3 3 -36 -4 -73 -15 -305 -91 -654 -61 -931
79 -142 72 -137 66 -108 126 14 27 30 75 37 106 11 56 13 58 47 63 247 37 471
135 645 283 133 112 195 231 203 392 7 117 -18 219 -83 347 -45 88 -138 224
-179 263 l-24 22 -6 -38 c-14 -86 -59 -224 -100 -312 -104 -220 -262 -395
-475 -527 -41 -25 -77 -45 -81 -45 -3 0 -19 19 -34 42 -16 23 -50 64 -76 89
l-48 47 24 60 c107 264 109 619 4 839 -42 88 -142 189 -230 232 -103 50 -306
76 -474 61z" id="helices"/>
</g>
</svg>
